<svg width="20" height="20" viewBox="0 0 20 20" fill="none" xmlns="http://www.w3.org/2000/svg">
    <path d="M0 5.18998C0 4.42618 0.740512 3.92784 1.37294 4.26603L8.46975 8.0611C8.79445 8.23473 9 8.59289 9 8.98504V18.7185C9 19.4823 8.25949 19.9807 7.62706 19.6425L0.530248 15.8474C0.205546 15.6738 0 15.3156 0 14.9235V5.18998Z" fill="#4758EF"/>
    <path d="M11 8.97801C11 8.58724 11.2062 8.23001 11.5326 8.05525L18.6056 4.26845C19.2463 3.92547 20 4.42428 20 5.19121V14.9305C20 15.3213 19.7938 15.6785 19.4674 15.8533L12.3944 19.6401C11.7537 19.983 11 19.4842 11 18.7173V8.97801Z" fill="#2639E6"/>
    <path d="M10.4659 0.107532C10.1937 -0.0350504 9.87368 -0.0358809 9.60081 0.105287L4.54296 2.72199C3.81901 3.09653 3.81901 4.17979 4.54296 4.55432L9.60081 7.17103C9.87368 7.3122 10.1937 7.31136 10.4659 7.16878L15.4614 4.55208C16.1796 4.17587 16.1795 3.10044 15.4614 2.72424L10.4659 0.107532Z" fill="#F58E2E"/>
</svg>
