<svg width="24" height="24" viewBox="0 0 24 24" fill="none" xmlns="http://www.w3.org/2000/svg">
    <path d="M20.2416 4.95208L20.8652 4.5354V4.5354L20.2416 4.95208ZM20.2416 16.7022L20.8652 17.1189V17.1189L20.2416 16.7022ZM19.0001 17.9438L19.4167 18.5674L19.0001 17.9438ZM14.25 18.7006L14.2467 17.9506C13.8338 17.9524 13.5 18.2877 13.5 18.7006H14.25ZM14.25 18.7021L14.9208 19.0376C14.9729 18.9334 15 18.8186 15 18.7021H14.25ZM9.75 18.7021H9C9 18.8186 9.02711 18.9334 9.07918 19.0376L9.75 18.7021ZM9.75 18.7006H10.5C10.5 18.2877 10.1662 17.9524 9.75327 17.9506L9.75 18.7006ZM4.99993 17.9438L4.58326 18.5674H4.58326L4.99993 17.9438ZM3.75839 16.7022L3.13478 17.1189L3.13478 17.1189L3.75839 16.7022ZM3.75839 4.95208L4.38199 5.36876L3.75839 4.95208ZM4.99993 3.71054L5.41661 4.33414L4.99993 3.71054ZM19.0001 3.71054L18.5834 4.33414V4.33414L19.0001 3.71054ZM21.75 10.8271C21.75 9.26274 21.7509 8.03298 21.6514 7.05432C21.5505 6.06314 21.3405 5.24668 20.8652 4.5354L19.618 5.36876C19.9011 5.79249 20.0703 6.33355 20.1591 7.20613C20.2491 8.09125 20.25 9.23152 20.25 10.8271H21.75ZM20.8652 17.1189C21.3405 16.4076 21.5505 15.5912 21.6514 14.6C21.7509 13.6213 21.75 12.3916 21.75 10.8271H20.25C20.25 12.4228 20.2491 13.563 20.1591 14.4482C20.0703 15.3207 19.9011 15.8618 19.618 16.2855L20.8652 17.1189ZM19.4167 18.5674C19.99 18.1843 20.4822 17.6921 20.8652 17.1189L19.618 16.2855C19.3444 16.695 18.9929 17.0466 18.5834 17.3202L19.4167 18.5674ZM14.2533 19.4506C15.4634 19.4453 16.45 19.4224 17.2662 19.3096C18.0944 19.1951 18.7955 18.9825 19.4167 18.5674L18.5834 17.3202C18.2131 17.5676 17.7529 17.7281 17.0608 17.8237C16.3567 17.9211 15.464 17.9453 14.2467 17.9506L14.2533 19.4506ZM15 18.7021V18.7006H13.5V18.7021H15ZM13.5652 21.7487L14.9208 19.0376L13.5792 18.3667L12.2236 21.0779L13.5652 21.7487ZM10.4348 21.7487C11.0797 23.0385 12.9203 23.0385 13.5652 21.7487L12.2236 21.0779C12.1315 21.2621 11.8685 21.2621 11.7764 21.0779L10.4348 21.7487ZM9.07918 19.0376L10.4348 21.7487L11.7764 21.0779L10.4208 18.3667L9.07918 19.0376ZM9 18.7006V18.7021H10.5V18.7006H9ZM4.58326 18.5674C5.2045 18.9825 5.90559 19.1951 6.73381 19.3096C7.54998 19.4224 8.53659 19.4453 9.74673 19.4506L9.75327 17.9506C8.536 17.9453 7.64333 17.9211 6.9392 17.8237C6.24712 17.7281 5.78688 17.5676 5.41661 17.3202L4.58326 18.5674ZM3.13478 17.1189C3.51782 17.6921 4.01001 18.1843 4.58326 18.5674L5.41661 17.3202C5.00715 17.0466 4.65558 16.695 4.38199 16.2855L3.13478 17.1189ZM2.25 10.8271C2.25 12.3916 2.24909 13.6213 2.34865 14.6C2.44948 15.5912 2.65953 16.4076 3.13478 17.1189L4.38199 16.2855C4.09886 15.8618 3.92971 15.3207 3.84095 14.4482C3.75091 13.563 3.75 12.4228 3.75 10.8271H2.25ZM3.13478 4.5354C2.65953 5.24668 2.44948 6.06314 2.34865 7.05432C2.24909 8.03298 2.25 9.26274 2.25 10.8271H3.75C3.75 9.23152 3.75091 8.09125 3.84095 7.20613C3.92971 6.33355 4.09886 5.79249 4.38199 5.36876L3.13478 4.5354ZM4.58326 3.08693C4.01001 3.46997 3.51782 3.96216 3.13478 4.5354L4.38199 5.36876C4.65558 4.9593 5.00715 4.60773 5.41661 4.33414L4.58326 3.08693ZM10.875 2.20215C9.31059 2.20215 8.08083 2.20124 7.10218 2.3008C6.11099 2.40163 5.29453 2.61167 4.58326 3.08693L5.41661 4.33414C5.84034 4.05101 6.3814 3.88186 7.25398 3.7931C8.1391 3.70306 9.27937 3.70215 10.875 3.70215V2.20215ZM13.125 2.20215H10.875V3.70215H13.125V2.20215ZM19.4167 3.08693C18.7055 2.61167 17.889 2.40163 16.8978 2.3008C15.9192 2.20124 14.6894 2.20215 13.125 2.20215V3.70215C14.7206 3.70215 15.8609 3.70306 16.746 3.7931C17.6186 3.88186 18.1597 4.05101 18.5834 4.33414L19.4167 3.08693ZM20.8652 4.5354C20.4822 3.96216 19.99 3.46996 19.4167 3.08693L18.5834 4.33414C18.9929 4.60773 19.3444 4.9593 19.618 5.36876L20.8652 4.5354Z" fill="#F9F9F9"/>
    <circle cx="16" cy="11" r="1" fill="#F9F9F9"/>
    <circle cx="12" cy="11" r="1" fill="#F9F9F9"/>
    <circle cx="8" cy="11" r="1" fill="#F9F9F9"/>
</svg>
