<svg width="16" height="16" viewBox="0 0 16 16" fill="none" xmlns="http://www.w3.org/2000/svg">
    <path d="M6.65796 13.114L6.89484 13.8256L6.89513 13.8255L6.65796 13.114ZM5.70686 7.70686L6.23719 7.17653L5.70686 7.70686ZM10.2928 7.70685L9.7625 7.17644L10.2928 7.70685ZM13.0407 4.95966L12.5105 4.42925L13.0407 4.95966ZM13.0407 4.95966L12.5105 4.42925L9.7625 7.17644L10.2928 7.70685L10.823 8.23725L13.571 5.49007L13.0407 4.95966ZM9.99976 8.41406H9.24976V11.6394H9.99976H10.7498V8.41406H9.99976ZM9.99976 11.6394H9.24976C9.24976 11.5325 9.31805 11.4367 9.42079 11.4025L9.65796 12.114L9.89513 12.8255C10.4062 12.6552 10.7498 12.1768 10.7498 11.6394H9.99976ZM9.65796 12.114L9.42079 11.4025L6.42079 12.4025L6.65796 13.114L6.89513 13.8255L9.89513 12.8255L9.65796 12.114ZM6.65796 13.114L6.42107 12.4024C6.58292 12.3485 6.74976 12.4688 6.74976 12.6394H5.99976H5.24976C5.24976 13.4924 6.08559 14.095 6.89484 13.8256L6.65796 13.114ZM5.99976 12.6394H6.74976V8.41397H5.99976H5.24976V12.6394H5.99976ZM5.70686 7.70686L6.23719 7.17653L3.48997 4.42931L2.95964 4.95964L2.42931 5.48997L5.17653 8.23719L5.70686 7.70686ZM2.66675 4.25253H3.41675V3.66675H2.66675H1.91675V4.25253H2.66675ZM3.66675 2.66675V3.41675H12.3337V2.66675V1.91675H3.66675V2.66675ZM13.3337 3.66675H12.5837V4.25245H13.3337H14.0837V3.66675H13.3337ZM12.3337 2.66675V3.41675C12.4718 3.41675 12.5837 3.52868 12.5837 3.66675H13.3337H14.0837C14.0837 2.70025 13.3002 1.91675 12.3337 1.91675V2.66675ZM2.66675 3.66675H3.41675C3.41675 3.52868 3.52868 3.41675 3.66675 3.41675V2.66675V1.91675C2.70025 1.91675 1.91675 2.70025 1.91675 3.66675H2.66675ZM2.95964 4.95964L3.48997 4.42931C3.44309 4.38243 3.41675 4.31884 3.41675 4.25253H2.66675H1.91675C1.91675 4.71666 2.10112 5.16178 2.42931 5.48997L2.95964 4.95964ZM5.99976 8.41397H6.74976C6.74976 7.94984 6.56538 7.50472 6.23719 7.17653L5.70686 7.70686L5.17653 8.23719C5.22342 8.28408 5.24976 8.34767 5.24976 8.41397H5.99976ZM10.2928 7.70685L9.7625 7.17644C9.4342 7.50464 9.24976 7.94984 9.24976 8.41406H9.99976H10.7498C10.7498 8.34774 10.7761 8.28414 10.823 8.23725L10.2928 7.70685ZM13.0407 4.95966L13.571 5.49007C13.8993 5.16186 14.0837 4.71667 14.0837 4.25245H13.3337H12.5837C12.5837 4.31877 12.5574 4.38237 12.5105 4.42925L13.0407 4.95966Z" fill="#F9F9F9"/>
</svg>
