<svg width="28" height="28" viewBox="0 0 28 28" fill="none" xmlns="http://www.w3.org/2000/svg">
    <path d="M11.8228 2.36948C10.8895 3.06512 4.66666 8.00438 4.66666 16.0392C4.66666 17.3036 4.90807 18.5556 5.37711 19.7238C5.84616 20.8919 6.53365 21.9533 7.40033 22.8474C8.26701 23.7415 9.29591 24.4507 10.4283 24.9345C11.5279 25.4044 12.7042 25.6529 13.8938 25.6668C10.9973 25.6085 8.66666 23.168 8.66666 20.166C8.66666 19.8944 8.68575 19.6273 8.72262 19.3661C8.72419 19.3506 8.7261 19.335 8.72836 19.3193C9.17558 16.2193 11.9404 13.5875 13.2774 12.4775C13.7046 12.1228 14.2955 12.1228 14.7227 12.4775C16.0597 13.5875 18.8244 16.2193 19.2716 19.3193C19.2739 19.335 19.2758 19.3506 19.2774 19.3662C19.3142 19.6273 19.3333 19.8944 19.3333 20.166C19.3333 23.168 17.0027 25.6085 14.1062 25.6668C15.2957 25.6529 16.4721 25.4044 17.5717 24.9345C18.7041 24.4507 19.733 23.7415 20.5997 22.8474C21.4663 21.9533 22.1538 20.8919 22.6229 19.7238C23.076 18.5952 23.3167 17.3883 23.3325 16.1677C23.333 16.1519 23.3333 16.136 23.3333 16.1201L23.3333 16.0766L23.3333 16.0393C23.2981 10.2065 19.4725 7.02306 18.7751 6.49104C18.7097 6.44116 18.6228 6.44174 18.5574 6.49162C18.2778 6.70501 17.4988 7.34188 16.6623 8.40223C16.5669 8.52316 16.3794 8.50003 16.3148 8.35906C14.7431 4.92789 12.5657 2.84531 12.0514 2.38282C11.985 2.32316 11.8942 2.3163 11.8228 2.36948Z" fill="#F9F9F9"/>
</svg>
