<svg width="20" height="20" viewBox="0 0 20 20" fill="none" xmlns="http://www.w3.org/2000/svg">
    <g clip-path="url(#clip0_4149_1193)">
        <path d="M16.6667 9.99984V18.3332H3.33332V9.99984M9.99999 18.3332V5.83317M9.99999 5.83317H6.24999C5.69746 5.83317 5.16755 5.61368 4.77685 5.22298C4.38615 4.83228 4.16666 4.30237 4.16666 3.74984C4.16666 3.1973 4.38615 2.6674 4.77685 2.2767C5.16755 1.886 5.69746 1.6665 6.24999 1.6665C9.16666 1.6665 9.99999 5.83317 9.99999 5.83317ZM9.99999 5.83317H13.75C14.3025 5.83317 14.8324 5.61368 15.2231 5.22298C15.6138 4.83228 15.8333 4.30237 15.8333 3.74984C15.8333 3.1973 15.6138 2.6674 15.2231 2.2767C14.8324 1.886 14.3025 1.6665 13.75 1.6665C10.8333 1.6665 9.99999 5.83317 9.99999 5.83317ZM1.66666 5.83317H18.3333V9.99984H1.66666V5.83317Z" stroke="#F58E2E" stroke-width="1.5" stroke-linecap="round" stroke-linejoin="round"/>
    </g>
    <defs>
        <clipPath id="clip0_4149_1193">
            <rect width="20" height="20" fill="white"/>
        </clipPath>
    </defs>
</svg>
