<svg width="127" height="26" viewBox="0 0 127 26" fill="none" xmlns="http://www.w3.org/2000/svg">
    <path d="M0 7.61996C0 6.69188 0.974357 6.08636 1.8065 6.49729L11.1444 11.1086C11.5716 11.3196 11.8421 11.7548 11.8421 12.2313V24.0582C11.8421 24.9863 10.8677 25.5918 10.0356 25.1809L0.697693 20.5696C0.270455 20.3586 0 19.9234 0 19.4469V7.61996Z" fill="#F9F9F9"/>
    <path d="M13.3041 12.227C13.3041 11.7527 13.572 11.3192 13.9962 11.1071L23.1879 6.51124C24.0204 6.09498 25 6.70037 25 7.63116V19.4512C25 19.9255 24.732 20.3591 24.3078 20.5712L15.1161 25.167C14.2836 25.5833 13.3041 24.9779 13.3041 24.0471V12.227Z" fill="#F9F9F9"/>
    <path d="M13.1134 1.05808C12.7633 0.883305 12.3515 0.882287 12.0005 1.05533L5.49434 4.2629C4.56309 4.722 4.56309 6.04986 5.49434 6.50897L12.0005 9.71653C12.3515 9.88958 12.7633 9.88856 13.1134 9.71378L19.5393 6.50622C20.4631 6.04506 20.4631 4.7268 19.5393 4.26565L13.1134 1.05808Z" fill="#F9F9F9"/>
    <path d="M121.74 21.258C120.913 21.258 120.172 21.1226 119.516 20.8518C118.874 20.5809 118.326 20.1889 117.869 19.6757C117.427 19.1625 117.085 18.5424 116.843 17.8154C116.601 17.0883 116.479 16.2758 116.479 15.3777C116.479 14.4796 116.601 13.6671 116.843 12.94C117.085 12.213 117.427 11.6 117.869 11.1011C118.326 10.5879 118.874 10.1959 119.516 9.92502C120.172 9.65416 120.913 9.51874 121.74 9.51874C122.567 9.51874 123.301 9.65416 123.942 9.92502C124.598 10.1959 125.147 10.5879 125.589 11.1011C126.045 11.6 126.394 12.213 126.636 12.94C126.879 13.6671 127 14.4796 127 15.3777C127 16.2758 126.879 17.0883 126.636 17.8154C126.394 18.5424 126.045 19.1625 125.589 19.6757C125.147 20.1889 124.598 20.5809 123.942 20.8518C123.301 21.1226 122.567 21.258 121.74 21.258ZM121.74 18.7562C122.367 18.7562 122.852 18.5638 123.194 18.1789C123.536 17.794 123.707 17.2452 123.707 16.5324V14.2444C123.707 13.5316 123.536 12.9828 123.194 12.5979C122.852 12.213 122.367 12.0206 121.74 12.0206C121.112 12.0206 120.628 12.213 120.286 12.5979C119.944 12.9828 119.772 13.5316 119.772 14.2444V16.5324C119.772 17.2452 119.944 17.794 120.286 18.1789C120.628 18.5638 121.112 18.7562 121.74 18.7562Z" fill="#F9F9F9"/>
    <path d="M112.649 8.57783C112.008 8.57783 111.537 8.43528 111.238 8.15017C110.953 7.85081 110.81 7.47304 110.81 7.01687V6.54644C110.81 6.09027 110.953 5.71963 111.238 5.43452C111.537 5.13516 112.008 4.98547 112.649 4.98547C113.291 4.98547 113.754 5.13516 114.039 5.43452C114.338 5.71963 114.488 6.09027 114.488 6.54644V7.01687C114.488 7.47304 114.338 7.85081 114.039 8.15017C113.754 8.43528 113.291 8.57783 112.649 8.57783ZM111.067 9.77528H114.231V21.0014H111.067V9.77528Z" fill="#F9F9F9"/>
    <path d="M106.286 21.2367C105.645 21.2367 105.167 21.0799 104.853 20.7663C104.554 20.4384 104.404 20.025 104.404 19.5261V19.0984C104.404 18.5995 104.554 18.1932 104.853 17.8796C105.167 17.5517 105.645 17.3878 106.286 17.3878C106.928 17.3878 107.398 17.5517 107.697 17.8796C108.011 18.1932 108.168 18.5995 108.168 19.0984V19.5261C108.168 20.025 108.011 20.4384 107.697 20.7663C107.398 21.0799 106.928 21.2367 106.286 21.2367Z" fill="#F9F9F9"/>
    <path d="M100.196 21.0015C99.0983 21.0015 98.2643 20.7235 97.6941 20.1675C97.1382 19.6116 96.8602 18.799 96.8602 17.7299V12.2344H95.2778V9.77535H96.069C96.4967 9.77535 96.7889 9.67556 96.9457 9.47599C97.1025 9.26216 97.1809 8.96279 97.1809 8.5779V6.73895H100.025V9.77535H102.249V12.2344H100.025V18.5424H102.078V21.0015H100.196Z" fill="#F9F9F9"/>
    <path d="M88.8717 21.258C88.0449 21.258 87.3036 21.1226 86.6478 20.8518C86.0064 20.5809 85.4575 20.1889 85.0013 19.6757C84.5594 19.1625 84.2173 18.5424 83.975 17.8154C83.7326 17.0883 83.6115 16.2758 83.6115 15.3777C83.6115 14.4796 83.7326 13.6671 83.975 12.94C84.2173 12.213 84.5594 11.6 85.0013 11.1011C85.4575 10.5879 86.0064 10.1959 86.6478 9.92502C87.3036 9.65416 88.0449 9.51874 88.8717 9.51874C89.6985 9.51874 90.4327 9.65416 91.0741 9.92502C91.7299 10.1959 92.2787 10.5879 92.7206 11.1011C93.1768 11.6 93.5261 12.213 93.7684 12.94C94.0108 13.6671 94.1319 14.4796 94.1319 15.3777C94.1319 16.2758 94.0108 17.0883 93.7684 17.8154C93.5261 18.5424 93.1768 19.1625 92.7206 19.6757C92.2787 20.1889 91.7299 20.5809 91.0741 20.8518C90.4327 21.1226 89.6985 21.258 88.8717 21.258ZM88.8717 18.7562C89.4989 18.7562 89.9836 18.5638 90.3257 18.1789C90.6679 17.794 90.8389 17.2452 90.8389 16.5324V14.2444C90.8389 13.5316 90.6679 12.9828 90.3257 12.5979C89.9836 12.213 89.4989 12.0206 88.8717 12.0206C88.2444 12.0206 87.7598 12.213 87.4176 12.5979C87.0755 12.9828 86.9044 13.5316 86.9044 14.2444V16.5324C86.9044 17.2452 87.0755 17.794 87.4176 18.1789C87.7598 18.5638 88.2444 18.7562 88.8717 18.7562Z" fill="#F9F9F9"/>
    <path d="M71.3076 5.17798H74.4723V11.6571H74.5792C74.736 11.0298 75.0924 10.5166 75.6484 10.1175C76.2186 9.71832 76.8672 9.51874 77.5942 9.51874C79.0198 9.51874 80.0961 10.0177 80.8231 11.0156C81.5501 12.0134 81.9136 13.4675 81.9136 15.3777C81.9136 17.2879 81.5501 18.7491 80.8231 19.7612C80.0961 20.7591 79.0198 21.2581 77.5942 21.2581C77.2236 21.2581 76.8743 21.201 76.5465 21.087C76.2186 20.9872 75.9192 20.8446 75.6484 20.6593C75.3918 20.4598 75.1708 20.2317 74.9855 19.9751C74.8002 19.7042 74.6648 19.4191 74.5792 19.1197H74.4723V21.0015H71.3076V5.17798ZM76.5465 18.6921C77.1452 18.6921 77.637 18.4854 78.0219 18.072C78.4211 17.6443 78.6206 17.0741 78.6206 16.3613V14.4155C78.6206 13.7027 78.4211 13.1396 78.0219 12.7262C77.637 12.2985 77.1452 12.0847 76.5465 12.0847C75.9477 12.0847 75.4488 12.2344 75.0497 12.5338C74.6648 12.8189 74.4723 13.218 74.4723 13.7312V17.0456C74.4723 17.5588 74.6648 17.9651 75.0497 18.2644C75.4488 18.5495 75.9477 18.6921 76.5465 18.6921Z" fill="#F9F9F9"/>
    <path d="M63.7923 21.258C62.9655 21.258 62.2242 21.1226 61.5685 20.8518C60.927 20.5809 60.3782 20.1889 59.922 19.6757C59.4801 19.1625 59.138 18.5424 58.8956 17.8154C58.6533 17.0883 58.5321 16.2758 58.5321 15.3777C58.5321 14.4796 58.6533 13.6671 58.8956 12.94C59.138 12.213 59.4801 11.6 59.922 11.1011C60.3782 10.5879 60.927 10.1959 61.5685 9.92502C62.2242 9.65416 62.9655 9.51874 63.7923 9.51874C64.6192 9.51874 65.3533 9.65416 65.9948 9.92502C66.6505 10.1959 67.1994 10.5879 67.6413 11.1011C68.0975 11.6 68.4467 12.213 68.6891 12.94C68.9314 13.6671 69.0526 14.4796 69.0526 15.3777C69.0526 16.2758 68.9314 17.0883 68.6891 17.8154C68.4467 18.5424 68.0975 19.1625 67.6413 19.6757C67.1994 20.1889 66.6505 20.5809 65.9948 20.8518C65.3533 21.1226 64.6192 21.258 63.7923 21.258ZM63.7923 18.7562C64.4196 18.7562 64.9043 18.5638 65.2464 18.1789C65.5885 17.794 65.7596 17.2452 65.7596 16.5324V14.2444C65.7596 13.5316 65.5885 12.9828 65.2464 12.5979C64.9043 12.213 64.4196 12.0206 63.7923 12.0206C63.1651 12.0206 62.6804 12.213 62.3383 12.5979C61.9962 12.9828 61.8251 13.5316 61.8251 14.2444V16.5324C61.8251 17.2452 61.9962 17.794 62.3383 18.1789C62.6804 18.5638 63.1651 18.7562 63.7923 18.7562Z" fill="#F9F9F9"/>
    <path d="M51.7226 21.258C50.8958 21.258 50.1545 21.1226 49.4988 20.8518C48.8573 20.5809 48.3085 20.1889 47.8523 19.6757C47.4104 19.1625 47.0683 18.5424 46.8259 17.8154C46.5836 17.0883 46.4624 16.2758 46.4624 15.3777C46.4624 14.4796 46.5836 13.6671 46.8259 12.94C47.0683 12.213 47.4104 11.6 47.8523 11.1011C48.3085 10.5879 48.8573 10.1959 49.4988 9.92502C50.1545 9.65416 50.8958 9.51874 51.7226 9.51874C52.5495 9.51874 53.2836 9.65416 53.9251 9.92502C54.5808 10.1959 55.1297 10.5879 55.5716 11.1011C56.0278 11.6 56.377 12.213 56.6194 12.94C56.8617 13.6671 56.9829 14.4796 56.9829 15.3777C56.9829 16.2758 56.8617 17.0883 56.6194 17.8154C56.377 18.5424 56.0278 19.1625 55.5716 19.6757C55.1297 20.1889 54.5808 20.5809 53.9251 20.8518C53.2836 21.1226 52.5495 21.258 51.7226 21.258ZM51.7226 18.7562C52.3499 18.7562 52.8346 18.5638 53.1767 18.1789C53.5188 17.794 53.6899 17.2452 53.6899 16.5324V14.2444C53.6899 13.5316 53.5188 12.9828 53.1767 12.5979C52.8346 12.213 52.3499 12.0206 51.7226 12.0206C51.0954 12.0206 50.6107 12.213 50.2686 12.5979C49.9265 12.9828 49.7554 13.5316 49.7554 14.2444V16.5324C49.7554 17.2452 49.9265 17.794 50.2686 18.1789C50.6107 18.5638 51.0954 18.7562 51.7226 18.7562Z" fill="#F9F9F9"/>
    <path d="M33.0768 6.07605H40.3256C41.5659 6.07605 42.5281 6.42531 43.2124 7.12382C43.9109 7.82233 44.2601 8.74893 44.2601 9.90362C44.2601 10.4738 44.1817 10.9585 44.0249 11.3577C43.8824 11.7568 43.6828 12.0847 43.4262 12.3413C43.1839 12.5979 42.8916 12.7903 42.5495 12.9186C42.2216 13.0327 41.8652 13.0968 41.4803 13.1111V13.2394C41.8367 13.2394 42.2074 13.3035 42.5923 13.4318C42.9914 13.5601 43.3549 13.7668 43.6828 14.0519C44.0107 14.3228 44.2815 14.6792 44.4953 15.1211C44.7234 15.563 44.8375 16.1047 44.8375 16.7462C44.8375 17.3307 44.7377 17.8866 44.5381 18.4141C44.3528 18.9273 44.0891 19.3763 43.7469 19.7612C43.4048 20.1461 42.9985 20.4526 42.5281 20.6807C42.0577 20.8945 41.5445 21.0014 40.9885 21.0014H33.0768V6.07605ZM36.327 18.2644H40.069C40.4967 18.2644 40.8317 18.1504 41.0741 17.9223C41.3306 17.6799 41.4589 17.3449 41.4589 16.9173V16.1902C41.4589 15.7626 41.3306 15.4347 41.0741 15.2066C40.8317 14.9643 40.4967 14.8431 40.069 14.8431H36.327V18.2644ZM36.327 12.1916H39.5559C39.9835 12.1916 40.3185 12.0704 40.5609 11.8281C40.8032 11.5858 40.9244 11.2508 40.9244 10.8231V10.1816C40.9244 9.75394 40.8032 9.41894 40.5609 9.1766C40.3185 8.93425 39.9835 8.81308 39.5559 8.81308H36.327V12.1916Z" fill="#F9F9F9"/>
</svg>
